<?xml version="1.0" encoding="UTF-8"?>
<svg xmlns="http://www.w3.org/2000/svg" width="1001" height="1001" viewBox="0 0 1001 1001" fill="none">
  <g clip-path="url(#clip0_20_189)">
    <path d="M749.628 307.738C711.598 258.493 659.818 221.631 600.838 201.815C541.857 181.999 478.324 180.119 418.275 196.412C358.226 212.706 304.357 246.442 263.482 293.353C222.607 340.263 196.561 398.242 188.639 459.957C180.718 521.671 191.275 584.348 218.977 640.062C246.679 695.775 290.28 742.023 344.267 772.955C398.255 803.887 460.202 818.114 522.276 813.837C584.349 809.56 643.76 786.971 692.995 748.927C830.424 642.719 855.796 445.217 749.628 307.738Z" fill="#FF6C37"></path>
    <path d="M606.753 385.87L474.111 519.564L436.628 481.029C567.176 350.481 580.27 362.278 606.753 385.87Z" fill="white"></path>
    <path d="M474.111 523.221C472.936 523.192 471.814 522.726 470.965 521.914L433.217 484.165C432.367 483.285 431.892 482.11 431.892 480.886C431.892 479.663 432.367 478.488 433.217 477.608C561.926 348.898 579.493 354.924 609.898 382.45C610.408 382.857 610.815 383.377 611.088 383.969C611.361 384.561 611.492 385.209 611.471 385.861C611.668 387.139 611.176 388.446 610.164 389.272L477.522 521.923C476.592 522.776 475.373 523.234 474.111 523.221ZM443.175 481.019L474.111 511.955L599.94 386.126C595.596 380.681 589.396 377.03 582.528 375.869C575.66 374.708 568.605 376.12 562.713 379.835C539.906 390.058 503.209 421.25 443.175 481.019Z" fill="#FF6C37"></path>
    <path d="M512.125 556.526L475.949 519.564L608.591 388.485C644.246 423.354 591.289 481.56 512.125 556.526Z" fill="white"></path>
    <path d="M512.125 561.245C510.965 561.153 509.864 560.695 508.98 559.937L472.017 523.762C471.463 522.417 471.463 520.908 472.017 519.564C471.624 518.461 471.624 517.256 472.017 516.153L604.659 383.511C605.581 382.644 606.8 382.162 608.065 382.162C609.331 382.162 610.549 382.644 611.472 383.511C615.767 387.465 619.161 392.297 621.422 397.679C623.683 403.062 624.759 408.868 624.575 414.703C624.575 450.092 584.202 494.654 515.527 559.672C514.609 560.58 513.412 561.137 512.125 561.245ZM482.762 519.564L512.381 549.173C564.807 499.628 614.883 448.51 615.138 413.907C615.423 406.571 612.998 399.387 608.326 393.725L482.762 519.564Z" fill="#FF6C37"></path>
    <path d="M437.67 481.815L463.887 508.033C464.055 508.18 464.189 508.362 464.28 508.565C464.372 508.769 464.42 508.989 464.42 509.213C464.42 509.436 464.372 509.656 464.28 509.86C464.189 510.063 464.055 510.245 463.887 510.392L408.572 522.189C407.455 522.43 406.29 522.299 405.255 521.817C404.219 521.335 403.369 520.528 402.835 519.518C402.301 518.508 402.111 517.352 402.295 516.224C402.479 515.097 403.026 514.06 403.853 513.273L436.097 481.294C436.097 481.294 437.149 481.294 437.67 481.815Z" fill="white"></path>
    <path d="M407.264 527.428C405.516 527.406 403.803 526.937 402.289 526.064C400.774 525.192 399.509 523.945 398.613 522.444C397.605 520.543 397.24 518.367 397.571 516.24C397.902 514.114 398.913 512.152 400.452 510.648L432.43 478.404C433.583 477.373 435.076 476.803 436.623 476.803C438.169 476.803 439.662 477.373 440.815 478.404L467.033 504.622C468.586 506.096 469.196 508.328 468.606 510.392C468.016 512.457 466.286 514.098 464.153 514.59L408.837 526.386L407.264 527.428ZM436.627 487.586L407.008 517.205L456.033 506.716L436.627 487.586Z" fill="#FF6C37"></path>
    <path d="M677.276 312.201C658.303 293.897 628.498 293.13 608.601 310.402C588.704 327.674 585.303 357.323 600.796 378.655C616.288 399.987 645.494 405.964 668.104 392.417L632.45 356.763L677.276 312.201Z" fill="white"></path>
    <path d="M641.887 404.47C630.987 404.33 620.368 400.986 611.355 394.853C602.342 388.721 595.333 380.072 591.201 369.985C587.072 359.904 585.989 348.835 588.086 338.145C590.182 327.456 595.367 317.616 602.998 309.842C613.493 299.54 627.612 293.768 642.319 293.768C657.026 293.768 671.146 299.54 681.641 309.842C682.644 310.688 683.214 311.936 683.214 313.253C683.211 313.901 683.07 314.541 682.798 315.13C682.527 315.718 682.132 316.242 681.641 316.664L639.174 356.773L671.417 388.495C671.94 388.994 672.332 389.613 672.56 390.299C672.788 390.984 672.845 391.715 672.725 392.427C672.647 393.115 672.419 393.777 672.057 394.366C671.696 394.955 671.209 395.458 670.631 395.839C661.969 401.253 652.011 404.241 641.798 404.489L641.887 404.47ZM641.887 302.754C623.209 302.853 606.497 314.089 599.488 331.263C592.479 348.436 596.293 368.205 609.388 381.398C615.9 387.949 624.24 392.38 633.314 394.111C642.388 395.842 651.773 394.793 660.24 391.1L629.304 360.164C628.812 359.771 628.415 359.272 628.142 358.704C627.869 358.137 627.728 357.515 627.728 356.886C627.728 356.256 627.869 355.634 628.142 355.067C628.415 354.499 628.812 354 629.304 353.607L670.198 312.447C662.069 306.217 652.129 302.82 641.887 302.754Z" fill="#FF6C37"></path>
    <path d="M678.063 312.988L633.236 357.549L668.891 393.204C672.48 391.144 675.821 388.68 678.849 385.861C688.194 375.983 693.336 362.862 693.189 349.265C693.042 335.669 687.619 322.661 678.063 312.988Z" fill="white"></path>
    <path d="M668.094 397.136C667.505 397.168 666.916 397.067 666.372 396.841C665.827 396.614 665.341 396.268 664.948 395.829L629.293 360.174C628.801 359.78 628.404 359.282 628.131 358.714C627.858 358.147 627.717 357.525 627.717 356.895C627.717 356.266 627.858 355.644 628.131 355.076C628.404 354.509 628.801 354.01 629.293 353.617L673.854 309.842C674.285 309.193 674.869 308.661 675.555 308.293C676.241 307.924 677.008 307.732 677.786 307.732C678.565 307.732 679.332 307.924 680.018 308.293C680.704 308.661 681.288 309.193 681.719 309.842C686.95 314.968 691.106 321.086 693.943 327.838C696.78 334.59 698.242 341.84 698.242 349.164C698.242 356.487 696.78 363.738 693.943 370.49C691.106 377.242 686.95 383.36 681.719 388.485C678.633 391.758 675.102 394.581 671.23 396.871C670.255 397.362 669.137 397.457 668.094 397.136ZM639.261 356.772L668.88 386.391C670.918 384.963 672.846 383.386 674.651 381.673C683.358 372.989 688.262 361.205 688.285 348.908C688.305 337.903 684.294 327.272 677.01 319.024L639.261 356.772Z" fill="#FF6C37"></path>
    <path d="M612.258 391.375C608.708 388.041 604.02 386.185 599.149 386.185C594.279 386.185 589.591 388.041 586.04 391.375L467.299 509.852L486.96 529.778L612.523 419.677C614.438 417.842 615.957 415.634 616.987 413.19C618.016 410.745 618.535 408.116 618.51 405.464C618.485 402.812 617.917 400.193 616.842 397.768C615.767 395.344 614.207 393.174 612.258 391.375Z" fill="white"></path>
    <path d="M485.908 534.506C484.733 534.477 483.611 534.011 482.762 533.199L462.836 513.273C461.986 512.393 461.511 511.217 461.511 509.994C461.511 508.771 461.986 507.596 462.836 506.716L581.587 388.485C585.007 385.069 589.375 382.759 594.124 381.855C598.873 380.951 603.784 381.495 608.221 383.416C612.657 385.337 616.414 388.547 619.004 392.628C621.594 396.71 622.898 401.476 622.747 406.308C622.611 409.588 621.822 412.807 620.426 415.778C619.03 418.749 617.055 421.411 614.617 423.609L489.053 533.71C488.14 534.356 487.018 534.647 485.908 534.506ZM472.017 509.852L485.121 523.221L608.326 416.001C611.373 413.347 613.192 409.552 613.31 405.512C613.428 401.471 611.835 397.52 608.857 394.767C606.106 392.028 602.382 390.49 598.5 390.49C594.618 390.49 590.895 392.028 588.144 394.767L472.017 509.852Z" fill="#FF6C37"></path>
    <path d="M375.286 644.862C374.95 645.318 374.769 645.869 374.769 646.435C374.769 647.001 374.95 647.552 375.286 648.008L380.525 670.815C380.735 672.157 380.536 673.531 379.954 674.758C379.372 675.986 378.434 677.009 377.262 677.696C376.094 678.379 374.739 678.674 373.393 678.538C372.047 678.402 370.778 677.842 369.771 676.939L333.86 642.336L445.799 529.512H484.6L510.818 555.73C469.92 591.487 424.319 621.477 375.286 644.862Z" fill="white"></path>
    <path d="M372.927 683.398C369.958 683.339 367.028 682.12 365.062 679.986L330.725 645.649C330.233 645.256 329.836 644.757 329.563 644.189C329.29 643.622 329.148 643 329.148 642.37C329.148 641.741 329.29 641.119 329.563 640.551C329.836 639.984 330.233 639.485 330.725 639.092L443.44 526.111C444.071 525.44 444.896 524.983 445.799 524.804H484.856C485.873 524.444 486.984 524.444 488.001 524.804L514.219 551.021C514.718 551.481 515.097 552.055 515.325 552.693C515.553 553.332 515.622 554.017 515.527 554.688C515.545 555.339 515.413 555.986 515.14 556.578C514.867 557.17 514.461 557.69 513.954 558.099L511.86 559.937C470.797 594.17 425.621 623.142 377.38 646.18L382.364 667.413C382.749 669.051 382.764 670.755 382.407 672.399C382.05 674.044 381.331 675.588 380.301 676.919C379.272 678.25 377.958 679.334 376.456 680.093C374.954 680.851 373.301 681.265 371.619 681.304L372.927 683.398ZM340.948 642.238L371.875 673.43C372.163 673.687 372.536 673.829 372.922 673.829C373.308 673.829 373.68 673.687 373.969 673.43C374.161 673.162 374.265 672.84 374.265 672.51C374.265 672.18 374.161 671.859 373.969 671.591L368.729 648.785C368.316 647.148 368.482 645.419 369.199 643.89C369.915 642.362 371.139 641.129 372.661 640.399C419.606 617.669 463.617 589.324 503.73 555.986L482.231 534.487H447.107L340.948 642.238Z" fill="#FF6C37"></path>
    <path d="M306.867 669.242L333.084 643.024L373.458 683.398L309.236 678.944C308.133 678.858 307.086 678.426 306.244 677.709C305.401 676.992 304.807 676.027 304.545 674.953C304.284 673.878 304.368 672.748 304.787 671.724C305.206 670.701 305.937 669.835 306.876 669.252L306.867 669.242Z" fill="white"></path>
    <path d="M374.234 687.33L310.268 682.877C306.473 682.523 303.21 679.928 301.873 676.457C300.536 672.987 301.352 668.868 303.976 666.096L330.194 639.878C331.074 639.029 332.249 638.553 333.472 638.553C334.696 638.553 335.871 639.029 336.751 639.878L376.859 679.986C377.414 680.747 377.713 681.665 377.713 682.606C377.713 683.548 377.414 684.465 376.859 685.226C376.253 686.207 375.325 686.956 374.234 687.33ZM310.268 672.653L362.693 676.064L333.861 649.06L310.268 672.653Z" fill="#FF6C37"></path>
    <path d="M488.267 532.678L435.311 540.808L465.981 510.402L488.267 532.678Z" fill="white"></path>
    <path d="M435.311 545.772C434.431 545.795 433.563 545.558 432.817 545.092C432.07 544.625 431.478 543.949 431.113 543.147C430.555 542.388 430.254 541.47 430.254 540.527C430.254 539.585 430.555 538.667 431.113 537.908L461.519 507.237C462.441 506.37 463.659 505.887 464.925 505.887C466.191 505.887 467.409 506.37 468.331 507.237L490.626 529.512C491.072 530.219 491.308 531.037 491.308 531.872C491.308 532.707 491.072 533.525 490.626 534.231C490.408 535.092 489.946 535.872 489.295 536.476C488.645 537.081 487.834 537.486 486.96 537.642L434.534 545.772H435.311ZM465.982 517.195L448.945 534.231L478.309 529.778L465.982 517.195Z" fill="#FF6C37"></path>
    <path d="M488.266 532.658L451.304 537.377C450.315 537.601 449.28 537.501 448.352 537.091C447.424 536.681 446.653 535.983 446.154 535.1C445.654 534.218 445.452 533.197 445.577 532.191C445.703 531.184 446.15 530.245 446.851 529.512L465.991 510.373L488.266 532.658Z" fill="white"></path>
    <path d="M450.252 542.371C448.539 542.354 446.86 541.884 445.387 541.009C443.915 540.134 442.7 538.884 441.867 537.387C440.866 535.592 440.478 533.52 440.761 531.485C441.045 529.45 441.986 527.563 443.44 526.111L462.579 506.971C463.502 506.105 464.72 505.622 465.986 505.622C467.251 505.622 468.469 506.105 469.392 506.971L491.677 529.257C492.34 529.885 492.806 530.692 493.02 531.579C493.233 532.467 493.185 533.397 492.88 534.258C492.575 535.119 492.027 535.872 491.302 536.427C490.577 536.983 489.707 537.316 488.797 537.387L452.1 542.105L450.252 542.371ZM450.252 532.668L478.043 529.257L465.725 516.939L449.996 532.668H450.252ZM678.318 343.138C677.824 342.311 677.043 341.693 676.125 341.403C675.206 341.114 674.213 341.171 673.334 341.565C672.9 341.785 672.514 342.089 672.2 342.461C671.886 342.832 671.65 343.263 671.505 343.728C671.213 344.665 671.305 345.679 671.761 346.549C673.599 350.412 673.088 354.983 670.453 358.345C670.126 358.669 669.87 359.058 669.7 359.486C669.531 359.914 669.453 360.372 669.47 360.832C669.48 361.754 669.83 362.64 670.453 363.32C671.126 363.585 671.874 363.585 672.547 363.32C673.157 363.473 673.798 363.456 674.4 363.271C675.001 363.085 675.54 362.738 675.958 362.268C678.117 359.625 679.484 356.425 679.901 353.038C680.319 349.652 679.77 346.226 678.318 343.138Z" fill="#FF6C37"></path>
  </g>
  <defs>
    <clipPath id="clip0_20_189">
      <rect width="630.57" height="630.57" fill="white" transform="translate(185 185)"></rect>
    </clipPath>
  </defs>
</svg>
